<svg version="1.2" xmlns="http://www.w3.org/2000/svg" viewBox="0 0 4096 1184" width="1920" height="555">
	<style>
		.s0 { fill: #ffffff } 
	</style>
	<path id="VELD" class="s0" aria-label="VELD"  d="m612.1 1114h-147l-459.6-1043.7h161.5l421.2 963.2h-91.7l425-963.2h148.9zm1348.4 0h-757.7v-1043.7h736.6v129.1h-588.4v785.5h609.5zm-85.6-466.7h-536.4v-126.6h536.4zm1041.4 466.8h-714.5v-1043.7h148.2v914.6h566.3zm610.7 0h-439.2v-1043.7h439.2q168 0 294.2 67.1 127.6 64.8 198.3 183.4 71.5 115.8 71.5 271.4 0 155.6-71.5 272.8-70.7 117.1-198.3 183.4-126.2 65.6-294.2 65.6zm-291-914.6v785.6h283q129.3 0 223.1-48.4 95.2-50.9 146.2-138.7 53.3-89 53.3-205.7 0-118-53.3-204.3-51-89.2-146.2-138.6-93.8-49.9-223.1-49.9z"/>
</svg>